<?xml version="1.0" encoding="UTF-8" standalone="no"?>
<!-- Created with Inkscape (http://www.inkscape.org/) -->

<svg
   xmlns:dc="http://purl.org/dc/elements/1.1/"
   xmlns:cc="http://creativecommons.org/ns#"
   xmlns:rdf="http://www.w3.org/1999/02/22-rdf-syntax-ns#"
   xmlns:svg="http://www.w3.org/2000/svg"
   xmlns="http://www.w3.org/2000/svg"
   xmlns:sodipodi="http://sodipodi.sourceforge.net/DTD/sodipodi-0.dtd"
   xmlns:inkscape="http://www.inkscape.org/namespaces/inkscape"
   version="1.1"
   id="svg846"
   xml:space="preserve"
   width="922.47736"
   height="165.16267"
   viewBox="0 0 922.47736 165.16267"
   sodipodi:docname="INSTAMAPS_LOGO_2019_tra.svg"
   inkscape:version="0.92.4 (5da689c313, 2019-01-14)"><metadata
     id="metadata852"><rdf:RDF><cc:Work
         rdf:about=""><dc:format>image/svg+xml</dc:format><dc:type
           rdf:resource="http://purl.org/dc/dcmitype/StillImage" /><dc:title></dc:title></cc:Work></rdf:RDF></metadata><defs
     id="defs850"><clipPath
       clipPathUnits="userSpaceOnUse"
       id="clipPath864"><path
         d="M 0,123.872 H 691.858 V 0 H 0 Z"
         id="path862"
         inkscape:connector-curvature="0" /></clipPath></defs><sodipodi:namedview
     pagecolor="#ffffff"
     bordercolor="#666666"
     borderopacity="1"
     objecttolerance="10"
     gridtolerance="10"
     guidetolerance="10"
     inkscape:pageopacity="0"
     inkscape:pageshadow="2"
     inkscape:window-width="1473"
     inkscape:window-height="835"
     id="namedview848"
     showgrid="false"
     inkscape:zoom="0.57670792"
     inkscape:cx="461.23868"
     inkscape:cy="82.581337"
     inkscape:window-x="0"
     inkscape:window-y="0"
     inkscape:window-maximized="0"
     inkscape:current-layer="g854" /><g
     id="g854"
     inkscape:groupmode="layer"
     inkscape:label="INSTAMAPS_LOGO_2019_tra"
     transform="matrix(1.3333333,0,0,-1.3333333,0,165.16267)"><path
       d="M 9.086,91.454 H 22.35 V 31.765 H 9.086 Z"
       style="fill:#231f20;fill-opacity:1;fill-rule:nonzero;stroke:none"
       id="path856"
       inkscape:connector-curvature="0" /><g
       id="g858"><g
         id="g860"
         clip-path="url(#clipPath864)"><g
           id="g866"
           transform="translate(90.346,31.7646)"><path
             d="m 0,0 h -16.858 l -27.211,45.154 h -0.386 c 0.542,-7.974 0.813,-13.663 0.813,-17.065 V 0 h -11.851 v 59.689 h 16.729 l 27.169,-44.706 h 0.3 c -0.429,7.757 -0.643,13.242 -0.643,16.454 v 28.252 l 11.938,0 z"
             style="fill:#231f20;fill-opacity:1;fill-rule:nonzero;stroke:none"
             id="path868"
             inkscape:connector-curvature="0" /></g><g
           id="g870"
           transform="translate(139.9476,48.3408)"><path
             d="m 0,0 c 0,-5.39 -2.032,-9.636 -6.097,-12.738 -4.065,-3.103 -9.719,-4.655 -16.965,-4.655 -6.674,0 -12.578,1.198 -17.712,3.593 v 11.758 c 4.22,-1.796 7.793,-3.062 10.717,-3.797 2.924,-0.734 5.598,-1.102 8.022,-1.102 2.91,0 5.141,0.531 6.697,1.592 1.554,1.062 2.331,2.64 2.331,4.736 0,1.17 -0.342,2.212 -1.027,3.124 -0.684,0.911 -1.69,1.789 -3.016,2.633 -1.326,0.843 -4.029,2.19 -8.108,4.042 -3.822,1.714 -6.689,3.361 -8.6,4.94 -1.911,1.578 -3.437,3.415 -4.578,5.512 -1.141,2.095 -1.711,4.545 -1.711,7.348 0,5.281 1.875,9.431 5.626,12.452 3.751,3.022 8.935,4.533 15.553,4.533 3.251,0 6.353,-0.368 9.305,-1.103 2.953,-0.735 6.04,-1.769 9.264,-3.103 l -4.279,-9.839 c -3.337,1.306 -6.097,2.218 -8.279,2.735 -2.182,0.517 -4.329,0.776 -6.439,0.776 -2.511,0 -4.436,-0.558 -5.776,-1.674 -1.341,-1.117 -2.011,-2.573 -2.011,-4.368 0,-1.117 0.271,-2.089 0.813,-2.919 0.541,-0.831 1.404,-1.634 2.588,-2.41 1.183,-0.775 3.986,-2.17 8.408,-4.184 C -9.427,15.214 -5.419,12.54 -3.251,9.859 -1.084,7.178 0,3.892 0,0"
             style="fill:#231f20;fill-opacity:1;fill-rule:nonzero;stroke:none"
             id="path872"
             inkscape:connector-curvature="0" /></g><g
           id="g874"
           transform="translate(175.4168,31.7646)"><path
             d="M 0,0 H -13.263 V 49.155 H -30.249 V 59.689 H 16.986 V 49.155 H 0 Z"
             style="fill:#231f20;fill-opacity:1;fill-rule:nonzero;stroke:none"
             id="path876"
             inkscape:connector-curvature="0" /></g><g
           id="g878"
           transform="translate(228.2406,56.5879)"><path
             d="m 0,0 c -4.193,12.873 -6.554,20.154 -7.081,21.842 -0.528,1.687 -0.906,3.021 -1.134,4.001 C -9.156,22.358 -11.852,13.744 -16.301,0 Z m 7.701,-24.823 -4.535,14.208 h -22.805 l -4.535,-14.208 h -14.29 l 22.077,59.933 h 16.216 l 22.163,-59.933 z"
             style="fill:#231f20;fill-opacity:1;fill-rule:nonzero;stroke:none"
             id="path880"
             inkscape:connector-curvature="0" /></g><g
           id="g882"
           transform="translate(463.5623,62.0186)"><path
             d="m 0,0 c 0,-28.151 -22.82,-50.972 -50.977,-50.972 -28.152,0 -50.973,22.821 -50.973,50.972 0,28.153 22.821,50.978 50.973,50.978 C -22.82,50.978 0,28.153 0,0"
             style="fill:#56c035;fill-opacity:1;fill-rule:nonzero;stroke:none"
             id="path884"
             inkscape:connector-curvature="0" /></g><g
           id="g886"
           transform="translate(422.1454,57.5752)"><path
             d="m 0,0 c -4.001,12.873 -6.253,20.153 -6.757,21.842 -0.504,1.687 -0.864,3.021 -1.082,4.001 C -8.736,22.358 -11.309,13.744 -15.555,0 Z m 7.35,-24.823 -4.329,14.208 h -21.76 l -4.328,-14.208 h -13.636 l 21.066,59.933 h 15.474 l 21.148,-59.933 z"
             style="fill:#ffffff;fill-opacity:1;fill-rule:nonzero;stroke:none"
             id="path888"
             inkscape:connector-curvature="0" /></g><g
           id="g890"
           transform="translate(355.3719,62.0186)"><path
             d="m 0,0 c 0,-28.151 -22.824,-50.972 -50.977,-50.972 -28.152,0 -50.976,22.821 -50.976,50.972 0,28.153 22.824,50.978 50.976,50.978 C -22.824,50.978 0,28.153 0,0"
             style="fill:#fab50f;fill-opacity:1;fill-rule:nonzero;stroke:none"
             id="path892"
             inkscape:connector-curvature="0" /></g><g
           id="g894"
           transform="translate(297.7606,31.8037)"><path
             d="m 0,0 -14.371,46.828 h -0.368 c 0.517,-9.526 0.776,-15.882 0.776,-19.065 V 0 H -25.272 V 59.688 H -8.043 L 6.083,14.045 H 6.328 L 21.312,59.688 H 38.541 V 0 H 26.742 v 28.253 c 0,1.332 0.02,2.87 0.061,4.612 0.041,1.742 0.224,6.369 0.551,13.882 H 26.986 L 11.595,0 Z"
             style="fill:#ffffff;fill-opacity:1;fill-rule:nonzero;stroke:none"
             id="path896"
             inkscape:connector-curvature="0" /></g><g
           id="g898"
           transform="translate(679.9423,62.6563)"><path
             d="m 0,0 c 0,-28.152 -22.821,-50.973 -50.974,-50.973 -28.155,0 -50.975,22.821 -50.975,50.973 0,28.152 22.82,50.977 50.975,50.977 C -22.821,50.977 0,28.152 0,0"
             style="fill:#2768bb;fill-opacity:1;fill-rule:nonzero;stroke:none"
             id="path900"
             inkscape:connector-curvature="0" /></g><g
           id="g902"
           transform="translate(648.6874,49.9658)"><path
             d="m 0,0 c 0,-5.39 -1.939,-9.636 -5.818,-12.738 -3.878,-3.103 -9.275,-4.655 -16.188,-4.655 -6.369,0 -12.003,1.198 -16.902,3.593 v 11.758 c 4.027,-1.796 7.436,-3.062 10.226,-3.797 2.79,-0.734 5.342,-1.102 7.656,-1.102 2.776,0 4.906,0.531 6.389,1.592 1.484,1.062 2.225,2.64 2.225,4.736 0,1.17 -0.326,2.212 -0.98,3.124 -0.653,0.911 -1.612,1.789 -2.878,2.633 -1.265,0.843 -3.844,2.19 -7.737,4.042 -3.647,1.714 -6.383,3.361 -8.206,4.939 -1.823,1.579 -3.28,3.416 -4.368,5.512 -1.089,2.095 -1.633,4.546 -1.633,7.349 0,5.28 1.789,9.431 5.368,12.452 3.579,3.021 8.527,4.532 14.841,4.532 3.103,0 6.063,-0.367 8.88,-1.103 2.817,-0.734 5.763,-1.769 8.839,-3.102 l -4.083,-9.839 c -3.185,1.306 -5.818,2.218 -7.9,2.735 -2.082,0.517 -4.13,0.776 -6.144,0.776 -2.396,0 -4.233,-0.558 -5.512,-1.674 -1.279,-1.117 -1.919,-2.573 -1.919,-4.368 0,-1.117 0.259,-2.09 0.776,-2.919 0.516,-0.831 1.34,-1.634 2.47,-2.41 1.129,-0.775 3.803,-2.17 8.023,-4.184 C -8.996,15.214 -5.172,12.54 -3.104,9.859 -1.035,7.178 0,3.892 0,0"
             style="fill:#ffffff;fill-opacity:1;fill-rule:nonzero;stroke:none"
             id="path904"
             inkscape:connector-curvature="0" /></g><g
           id="g906"
           transform="translate(571.7518,61.3828)"><path
             d="m 0,0 c 0,-28.153 -22.819,-50.977 -50.973,-50.977 -28.152,0 -50.975,22.824 -50.975,50.977 0,28.152 22.823,50.977 50.975,50.977 C -22.819,50.977 0,28.152 0,0"
             style="fill:#29b9df;fill-opacity:1;fill-rule:nonzero;stroke:none"
             id="path908"
             inkscape:connector-curvature="0" /></g><g
           id="g910"
           transform="translate(517.5302,63.0771)"><path
             d="m 0,0 h 4.164 c 3.892,0 6.804,0.769 8.737,2.307 1.932,1.538 2.899,3.776 2.899,6.716 0,2.966 -0.811,5.158 -2.43,6.573 -1.619,1.415 -4.157,2.123 -7.614,2.123 H 0 Z m 28.578,9.472 c 0,-6.424 -2.007,-11.336 -6.021,-14.739 -4.016,-3.402 -9.724,-5.102 -17.127,-5.102 H 0 V -31.6 H -12.657 V 28.089 H 6.409 c 7.24,0 12.744,-1.559 16.515,-4.675 3.769,-3.116 5.654,-7.764 5.654,-13.942"
             style="fill:#ffffff;fill-opacity:1;fill-rule:nonzero;stroke:none"
             id="path912"
             inkscape:connector-curvature="0" /></g></g></g></g></svg>